<svg width="33" height="33" viewBox="0 0 33 33" fill="none" xmlns="http://www.w3.org/2000/svg">
<path fill-rule="evenodd" clip-rule="evenodd" d="M7.34152 9.97884C7.07104 9.89096 6.78638 10.067 6.74415 10.3482L6.23752 13.723C6.16495 14.2065 6.45251 14.6715 6.91742 14.8225L24.1767 20.4304C24.9832 20.6925 25.8494 20.2511 26.1114 19.4446C26.3838 18.6063 25.896 17.7113 25.0439 17.4859L19.7322 16.0805L18.4041 6.70728C18.349 6.31838 18.0772 5.99483 17.7037 5.87345C17.0777 5.67006 16.4244 6.09886 16.362 6.7541L15.6019 14.7384L8.34571 12.7959L7.64239 10.2921C7.60078 10.1439 7.48787 10.0264 7.34152 9.97884ZM26.1776 23.4521H5.64758V25.0314H26.1776V23.4521Z" fill="#6E7491"/>
</svg>
