<svg width="32" height="33" viewBox="0 0 32 33" fill="none" xmlns="http://www.w3.org/2000/svg">
<path d="M10 6.27778C10 5.84822 10.5858 5.5 11 5.5C11.4142 5.5 12 5.84822 12 6.27778V7.83333H10V6.27778Z" fill="#6E7491"/>
<path d="M20 6.27778C20 5.84822 20.5858 5.5 21 5.5C21.4142 5.5 22 5.84822 22 6.27778V7.83333H20V6.27778Z" fill="#6E7491"/>
<path fill-rule="evenodd" clip-rule="evenodd" d="M10 7.83333H7.75C7.33579 7.83333 7 8.18156 7 8.61111V25.7222C7 26.1518 7.33579 26.5 7.75 26.5H24.25C24.6642 26.5 25 26.1518 25 25.7222V8.61111C25 8.18156 24.6642 7.83333 24.25 7.83333H22H20H12H10ZM23.5 12.5H8.5V24.9444H23.5V12.5Z" fill="#6E7491"/>
<path d="M10 16C10 15.1716 10.6716 14.5 11.5 14.5V14.5C12.3284 14.5 13 15.1716 13 16V16C13 16.8284 12.3284 17.5 11.5 17.5V17.5C10.6716 17.5 10 16.8284 10 16V16Z" fill="#6E7491"/>
<path d="M22 19C22 18.1716 21.3284 17.5 20.5 17.5V17.5C19.6716 17.5 19 18.1716 19 19V19C19 19.8284 19.6716 20.5 20.5 20.5V20.5C21.3284 20.5 22 19.8284 22 19V19Z" fill="#6E7491"/>
</svg>
