<svg width="32" height="33" viewBox="0 0 32 33" fill="none" xmlns="http://www.w3.org/2000/svg">
<path fill-rule="evenodd" clip-rule="evenodd" d="M4.29285 16.3155C4.02797 16.419 3.91945 16.7356 4.06513 16.9799L5.81319 19.9108C6.06359 20.3306 6.58081 20.5079 7.0361 20.3299L23.9381 13.723C24.7279 13.4143 25.1179 12.5237 24.8092 11.734C24.4883 10.913 23.5436 10.5302 22.7417 10.8961L17.7432 13.1773L10.773 6.77125C10.4838 6.50546 10.0685 6.4276 9.70266 6.5706C9.08963 6.81023 8.85636 7.55604 9.22358 8.10227L13.6983 14.7584L6.85554 17.8571L4.72413 16.3669C4.59802 16.2787 4.43618 16.2594 4.29285 16.3155ZM25.6776 23.4521H5.14764V25.0313H25.6776V23.4521Z" fill="#6E7491"/>
</svg>
